# xmcd CD database file
#
# Track frame offsets:
#	150
#	13325
#	31695
#	51582
#	69282
#	91135
#	119075
#	135050
#	143952
#	165855
#	189472
#
# Disc length: 2893 seconds
#
# Revision: 0
# Processed by: cddbd v1.5.2PL0 Copyright (c) Steve Scherf et al.
# Submitted via: CDex 1.70beta2
#
DISCID=8c0b4b0b
DTITLE=Red Rooster - Rockin' the blues
DYEAR=1992
DGENRE=Blues
TTITLE0=Ruby
TTITLE1=Too Much Working Blues
TTITLE2=Tell Me
TTITLE3=No Car
TTITLE4=Love Is Blind
TTITLE5=Before I Go To Jail
TTITLE6=The Crack
TTITLE7=Slow Down
TTITLE8=Six Feet
TTITLE9=I Call It Living
TTITLE10=Dead And Cold
EXTD=YEAR: 1992
EXTT0=
EXTT1=
EXTT2=
EXTT3=
EXTT4=
EXTT5=
EXTT6=
EXTT7=
EXTT8=
EXTT9=
EXTT10=
PLAYORDER=
